<svg id="Layer_1" data-name="Layer 1" xmlns="http://www.w3.org/2000/svg" viewBox="0 0 492 494"><defs><style>.cls-1,.cls-2{fill:#fff;}.cls-2{font-size:229.42px;font-family:AlbaMatter, Alba Matter;}.cls-3{fill:#ff0;}</style></defs><title>Kalam Logo ( BLACK BG )</title><rect class="cls-1" x="0.5" y="488.07" width="296.91" height="5.43"/><path d="M308.91,497.57V502H13v-4.43H308.91m1-1H12V503H309.91v-6.43Z" transform="translate(-12 -9)"/><rect class="cls-1" x="486.12" y="1.14" width="5.38" height="363.47"/><path d="M503,10.64V373.12h-4.38V10.64H503m1-1h-6.38V374.12H504V9.64Z" transform="translate(-12 -9)"/><rect class="cls-1" x="1.94" y="0.5" width="5.38" height="492.04"/><path d="M18.81,10V501H14.44V10h4.37m1-1H13.44V502h6.37V9Z" transform="translate(-12 -9)"/><rect class="cls-1" x="2.57" y="0.5" width="488.29" height="5.43"/><path d="M502.36,10v4.43H15.07V10H502.36m1-1H14.07v6.43H503.36V9Z" transform="translate(-12 -9)"/><text class="cls-2" transform="translate(93.2 315.71) scale(1.02 1)">O</text><text class="cls-2" transform="translate(260.12 315.71) scale(1.26 1)">C</text><path class="cls-3" d="M281.85,390.5H269.14V134l19.38-20.77h12.4V369.73Z" transform="translate(-12 -9)"/></svg>